<svg width="47" height="56" viewBox="0 0 47 56" fill="none" xmlns="http://www.w3.org/2000/svg">
<path d="M4.40625 32.4211C4.40625 35.5158 5.10391 38.4263 6.49922 41.1526C7.89453 43.8789 9.84062 46.1509 12.3375 47.9684C12.1417 47.3789 11.9948 46.7772 11.8969 46.1632C11.799 45.5491 11.75 44.9474 11.75 44.3579C11.75 42.786 12.0438 41.3123 12.6313 39.9368C13.2188 38.5614 14.0755 37.3088 15.2016 36.1789L23.5 28L31.7984 36.1789C32.9245 37.3088 33.7812 38.5614 34.3687 39.9368C34.9562 41.3123 35.25 42.786 35.25 44.3579C35.25 44.9474 35.201 45.5491 35.1031 46.1632C35.0052 46.7772 34.8583 47.3789 34.6625 47.9684C37.1594 46.1509 39.1055 43.8789 40.5008 41.1526C41.8961 38.4263 42.5938 35.5158 42.5938 32.4211C42.5938 29.7684 42.0307 27.1772 40.9047 24.6474C39.7786 22.1175 38.163 19.7965 36.0578 17.6842C35.0297 18.4211 33.9526 18.9982 32.8266 19.4158C31.7005 19.8333 30.5745 20.0421 29.4484 20.0421C26.462 20.0421 23.9896 19.0228 22.0312 16.9842C20.0729 14.9456 19.0938 12.3789 19.0938 9.28421V7.81053C16.8417 9.43158 14.8099 11.2246 12.9984 13.1895C11.187 15.1544 9.64479 17.2053 8.37187 19.3421C7.09896 21.4789 6.11979 23.6649 5.43437 25.9C4.74896 28.1351 4.40625 30.3088 4.40625 32.4211ZM23.5 34.1895L18.2859 39.3474C17.6005 40.0351 17.0742 40.7965 16.707 41.6316C16.3398 42.4667 16.1562 43.3754 16.1562 44.3579C16.1562 46.3719 16.8661 48.0789 18.2859 49.4789C19.7057 50.8789 21.4438 51.5789 23.5 51.5789C25.5562 51.5789 27.2943 50.8789 28.7141 49.4789C30.1339 48.0789 30.8438 46.3719 30.8438 44.3579C30.8438 43.3754 30.6602 42.4667 30.293 41.6316C29.9258 40.7965 29.3995 40.0351 28.7141 39.3474L23.5 34.1895ZM23.5 0V9.72632C23.5 11.3965 24.0753 12.7965 25.2258 13.9263C26.3763 15.0561 27.7839 15.6211 29.4484 15.6211C30.3297 15.6211 31.1497 15.4368 31.9086 15.0684C32.6674 14.7 33.3406 14.1474 33.9281 13.4105L35.25 11.7895C38.8729 13.8526 41.737 16.7263 43.8422 20.4105C45.9474 24.0947 47 28.0982 47 32.4211C47 39.0035 44.7234 44.5789 40.1703 49.1474C35.6172 53.7158 30.0604 56 23.5 56C16.9396 56 11.3828 53.7158 6.82969 49.1474C2.27656 44.5789 0 39.0035 0 32.4211C0 26.1333 2.10521 20.0789 6.31563 14.2579C10.526 8.43684 16.2542 3.68421 23.5 0Z" fill="#323238"/>
</svg>
