<svg width="44" height="56" viewBox="0 0 44 56" fill="none" xmlns="http://www.w3.org/2000/svg">
<path d="M4.8125 56V51.8H19.9375V39.2H13.75C9.94583 39.2 6.70313 37.835 4.02188 35.105C1.34063 32.375 0 29.0733 0 25.2C0 22.4 0.756249 19.8217 2.26875 17.465C3.78125 15.1083 5.82083 13.3933 8.3875 12.32C8.8 8.82 10.301 5.89167 12.8906 3.535C15.4802 1.17833 18.5167 0 22 0C25.4833 0 28.5198 1.17833 31.1094 3.535C33.699 5.89167 35.2 8.82 35.6125 12.32C38.1792 13.3933 40.2187 15.1083 41.7312 17.465C43.2437 19.8217 44 22.4 44 25.2C44 29.0733 42.6594 32.375 39.9781 35.105C37.2969 37.835 34.0542 39.2 30.25 39.2H24.0625V51.8H39.875V56H4.8125ZM13.75 35H30.25C32.9083 35 35.1771 34.0433 37.0563 32.13C38.9354 30.2167 39.875 27.9067 39.875 25.2C39.875 23.24 39.325 21.455 38.225 19.845C37.125 18.235 35.7042 17.0333 33.9625 16.24L31.7625 15.26L31.4875 12.81C31.1667 10.3367 30.1125 8.28333 28.325 6.65C26.5375 5.01667 24.4292 4.2 22 4.2C19.5708 4.2 17.4625 5.01667 15.675 6.65C13.8875 8.28333 12.8333 10.3367 12.5125 12.81L12.2375 15.26L10.0375 16.24C8.29583 17.0333 6.875 18.235 5.775 19.845C4.675 21.455 4.125 23.24 4.125 25.2C4.125 27.9067 5.06458 30.2167 6.94375 32.13C8.82292 34.0433 11.0917 35 13.75 35Z" fill="#323238"/>
</svg>
