<svg width="52" height="56" viewBox="0 0 52 56" fill="none" xmlns="http://www.w3.org/2000/svg">
<path d="M10.4 45.3333C9.79333 45.3333 9.2625 45.1 8.8075 44.6333C8.3525 44.1667 8.125 43.6222 8.125 43C8.125 42.3778 8.3525 41.8333 8.8075 41.3667C9.2625 40.9 9.79333 40.6667 10.4 40.6667C11.0067 40.6667 11.5375 40.9 11.9925 41.3667C12.4475 41.8333 12.675 42.3778 12.675 43C12.675 43.6222 12.4475 44.1667 11.9925 44.6333C11.5375 45.1 11.0067 45.3333 10.4 45.3333ZM41.6 45.3333C40.9933 45.3333 40.4625 45.1 40.0075 44.6333C39.5525 44.1667 39.325 43.6222 39.325 43C39.325 42.3778 39.5525 41.8333 40.0075 41.3667C40.4625 40.9 40.9933 40.6667 41.6 40.6667C42.2067 40.6667 42.7375 40.9 43.1925 41.3667C43.6475 41.8333 43.875 42.3778 43.875 43C43.875 43.6222 43.6475 44.1667 43.1925 44.6333C42.7375 45.1 42.2067 45.3333 41.6 45.3333ZM18.2 56C17.5933 56 17.0625 55.7667 16.6075 55.3C16.1525 54.8333 15.925 54.2889 15.925 53.6667C15.925 53.0444 16.1525 52.5 16.6075 52.0333C17.0625 51.5667 17.5933 51.3333 18.2 51.3333C18.8067 51.3333 19.3375 51.5667 19.7925 52.0333C20.2475 52.5 20.475 53.0444 20.475 53.6667C20.475 54.2889 20.2475 54.8333 19.7925 55.3C19.3375 55.7667 18.8067 56 18.2 56ZM26 45.3333C25.3933 45.3333 24.8625 45.1 24.4075 44.6333C23.9525 44.1667 23.725 43.6222 23.725 43C23.725 42.3778 23.9525 41.8333 24.4075 41.3667C24.8625 40.9 25.3933 40.6667 26 40.6667C26.6067 40.6667 27.1375 40.9 27.5925 41.3667C28.0475 41.8333 28.275 42.3778 28.275 43C28.275 43.6222 28.0475 44.1667 27.5925 44.6333C27.1375 45.1 26.6067 45.3333 26 45.3333ZM33.8 56C33.1933 56 32.6625 55.7667 32.2075 55.3C31.7525 54.8333 31.525 54.2889 31.525 53.6667C31.525 53.0444 31.7525 52.5 32.2075 52.0333C32.6625 51.5667 33.1933 51.3333 33.8 51.3333C34.4067 51.3333 34.9375 51.5667 35.3925 52.0333C35.8475 52.5 36.075 53.0444 36.075 53.6667C36.075 54.2889 35.8475 54.8333 35.3925 55.3C34.9375 55.7667 34.4067 56 33.8 56ZM13.65 36C9.88 36 6.6625 34.6333 3.9975 31.9C1.3325 29.1667 0 25.8667 0 22C0 18.4889 1.22417 15.3556 3.6725 12.6C6.12083 9.84444 9.165 8.33333 12.805 8.06667C14.1917 5.57778 16.0225 3.61111 18.2975 2.16667C20.5725 0.722222 23.14 0 26 0C29.9433 0 33.2475 1.27778 35.9125 3.83333C38.5775 6.38889 40.2133 9.55556 40.82 13.3333C44.2433 13.5111 46.9625 14.7 48.9775 16.9C50.9925 19.1 52 21.6889 52 24.6667C52 27.7778 50.9275 30.4444 48.7825 32.6667C46.6375 34.8889 44.0267 36 40.95 36H13.65ZM13.65 32H40.95C42.9433 32 44.6333 31.2778 46.02 29.8333C47.4067 28.3889 48.1 26.6444 48.1 24.6C48.1 22.6 47.4067 20.8889 46.02 19.4667C44.6333 18.0444 42.9433 17.3333 40.95 17.3333H37.05V15.3333C37.05 12.1778 35.9775 9.5 33.8325 7.3C31.6875 5.1 29.0767 4 26 4C23.79 4 21.7642 4.61111 19.9225 5.83333C18.0808 7.05556 16.7267 8.71111 15.86 10.8L15.34 12H13.52C10.8333 12.0889 8.55833 13.1 6.695 15.0333C4.83167 16.9667 3.9 19.2889 3.9 22C3.9 24.7556 4.85333 27.1111 6.76 29.0667C8.66667 31.0222 10.9633 32 13.65 32Z" fill="white"/>
</svg>
